# File created by Blade
# Date/Time:  Mon Nov 15 14:44:42 2010
#---------------------------------------------------------
:version 1.10
:name HOM
:units
  mass 1.0
  length 1.000000
  angle deg
:documentation
     Acclaim Skeleton File
:root
   axis xyz
   order TX TY TZ RX RY RZ
   position 0.000000 0.000000 0.000000
   orientation 0 0 0
:bonedata
   begin
      id 1
      name LeftUpLeg_dum
      direction 1.000000 0.000000 0.000000
      length 4.719518
      axis 0.0 0.0 0.0 xyz
   end
   begin
      id 2
      name RightUpLeg_dum
      direction -1.000000 0.000000 0.000000
      length 4.719518
      axis 0.0 0.0 0.0 xyz
   end
   begin
      id 3
      name Spine_dum
      direction 0.000000 1.000000 0.000000
      length 0.039370
      axis 0.0 0.0 0.0 xyz
   end
   begin
      id 4
      name LeftUpLeg
      direction 0.000000 -1.000000 0.000000
      length 19.141694
      axis 0.0 0.0 0.0 xyz
      dof rx ry rz
   end
   begin
      id 5
      name LeftLeg
      direction 0.000000 -1.000000 0.000000
      length 19.555040
      axis 0.0 0.0 0.0 xyz
      dof rx ry rz
   end
   begin
      id 6
      name LeftFoot
      direction 0.000000 -0.258819 0.965926
      length 6.929396
      axis 15.0 0.0 0.0 xyz
      dof rx ry rz
   end
   begin
      id 7
      name LeftToeBase
      direction 0.000000 0.000000 1.000000
      length 2.952750
      axis 0.0 0.0 0.0 xyz
      dof rx ry rz
   end
   begin
      id 8
      name RightUpLeg
      direction 0.000000 -1.000000 0.000000
      length 19.141694
      axis 0.0 0.0 0.0 xyz
      dof rx ry rz
   end
   begin
      id 9
      name RightLeg
      direction 0.000000 -1.000000 0.000000
      length 19.555040
      axis 0.0 0.0 0.0 xyz
      dof rx ry rz
   end
   begin
      id 10
      name RightFoot
      direction 0.000000 -0.258819 0.965926
      length 6.929396
      axis 15.0 0.0 0.0 xyz
      dof rx ry rz
   end
   begin
      id 11
      name RightToeBase
      direction 0.000000 0.000000 1.000000
      length 2.952750
      axis 0.0 0.0 0.0 xyz
      dof rx ry rz
   end
   begin
      id 12
      name Spine
      direction 0.000000 1.000000 0.000000
      length 11.965764
      axis 0.0 0.0 0.0 xyz
      dof rx ry rz
   end
   begin
      id 13
      name Spine1
      direction 0.000000 1.000000 0.000000
      length 0.000000
      axis 0.0 0.0 0.0 xyz
      dof rx ry rz
   end
   begin
      id 14
      name Spine1_dum1
      direction 0.000000 1.000000 0.000000
      length 9.788721
      axis 0.0 0.0 0.0 xyz
   end
   begin
      id 15
      name Spine1_dum2
      direction 0.000000 1.000000 0.000000
      length 9.788721
      axis 0.0 0.0 0.0 xyz
   end
   begin
      id 16
      name Spine1_dum3
      direction 0.000000 1.000000 0.000000
      length 9.788721
      axis 0.0 0.0 0.0 xyz
   end
   begin
      id 17
      name Neck
      direction 0.000000 1.000000 0.000000
      length 7.029632
      axis 0.0 0.0 0.0 xyz
      dof rx ry rz
   end
   begin
      id 18
      name Head
      direction 0.000000 1.000000 0.000000
      length 4.527550
      axis 0.0 0.0 0.0 xyz
      dof rx ry rz
   end
   begin
      id 19
      name LeftShoulder
      direction 1.000000 -0.000004 0.000000
      length 9.320257
      axis 0.0 0.0 -90.0 xyz
      dof rx ry rz
   end
   begin
      id 20
      name LeftArm
      direction 1.000000 -0.000004 0.000000
      length 12.801352
      axis 0.0 0.0 -90.0 xyz
      dof rx ry rz
   end
   begin
      id 21
      name LeftForeArm
      direction 1.000000 -0.000004 0.000000
      length 11.278127
      axis 0.0 0.0 -90.0 xyz
      dof rx ry rz
   end
   begin
      id 22
      name LeftHand
      direction 0.000000 0.000000 0.000000
      length 0.000000
      axis 0.0 0.0 -90.0 xyz
      dof rx ry rz
   end
   begin
      id 23
      name LeftHand_dum1
      direction 0.000000 0.000000 0.000000
      length 0.000000
      axis 0.0 0.0 -90.0 xyz
   end
   begin
      id 24
      name LeftHand_dum2
      direction 1.000000 -0.000004 0.000000
      length 3.937000
      axis 0.0 0.0 -90.0 xyz
   end
   begin
      id 25
      name LeftHandThumb
      direction 0.000000 0.000000 1.000000
      length 3.937000
      axis 0.0 0.0 -90.0 xyz
      dof rx ry rz
   end
   begin
      id 26
      name RightShoulder
      direction -1.000000 -0.000004 0.000000
      length 9.320257
      axis 0.0 0.0 90.0 xyz
      dof rx ry rz
   end
   begin
      id 27
      name RightArm
      direction -1.000000 -0.000004 0.000000
      length 12.801352
      axis 0.0 0.0 90.0 xyz
      dof rx ry rz
   end
   begin
      id 28
      name RightForeArm
      direction -1.000000 -0.000004 0.000000
      length 11.278127
      axis 0.0 0.0 90.0 xyz
      dof rx ry rz
   end
   begin
      id 29
      name RightHand
      direction 0.000000 0.000000 0.000000
      length 0.000000
      axis 0.0 0.0 90.0 xyz
      dof rx ry rz
   end
   begin
      id 30
      name RightHand_dum1
      direction 0.000000 0.000000 0.000000
      length 0.000000
      axis 0.0 0.0 90.0 xyz
   end
   begin
      id 31
      name RightHand_dum2
      direction -1.000000 -0.000004 0.000000
      length 5.393690
      axis 0.0 0.0 90.0 xyz
   end
   begin
      id 32
      name RightHandThumb
      direction 0.000000 0.000000 1.000000
      length 3.937000
      axis 0.0 0.0 90.0 xyz
      dof rx ry rz
   end
:hierarchy
   begin
      root LeftUpLeg_dum RightUpLeg_dum Spine_dum
      LeftUpLeg_dum LeftUpLeg
      RightUpLeg_dum RightUpLeg
      Spine_dum Spine
      LeftUpLeg LeftLeg
      LeftLeg LeftFoot
      LeftFoot LeftToeBase
      RightUpLeg RightLeg
      RightLeg RightFoot
      RightFoot RightToeBase
      Spine Spine1
      Spine1 Spine1_dum1 Spine1_dum2 Spine1_dum3
      Spine1_dum1 Neck
      Spine1_dum2 LeftShoulder
      Spine1_dum3 RightShoulder
      Neck Head
      LeftShoulder LeftArm
      LeftArm LeftForeArm
      LeftForeArm LeftHand
      LeftHand LeftHand_dum1 LeftHand_dum2
      LeftHand_dum1 LeftHandThumb
      RightShoulder RightArm
      RightArm RightForeArm
      RightForeArm RightHand
      RightHand RightHand_dum1 RightHand_dum2
      RightHand_dum1 RightHandThumb
   end

# File created by Blade
# Date/Time:  Mon Nov 15 14:56:25 2010
# Frame Rate: 200.000 fps
#------------------------------------------------------
:FULLY-SPECIFIED
:DEGREES
512
root  4.776277 39.805741 21.907153 -14.126472 5.849648 -4.894056
LeftUpLeg  0.443329 7.288011 8.705380
LeftLeg  64.023124 -0.000000 -0.000000
LeftFoot  15.894642 6.355051 6.782611
LeftToeBase  -19.844185 0.000000 -0.000000
RightUpLeg  1.805826 -4.184542 10.776717
RightLeg  17.224891 -0.000000 0.000000
RightFoot  -0.534713 -19.574423 -10.620799
RightToeBase  -27.184926 0.000000 -0.000000
Spine  13.791829 -3.402588 1.916078
Spine1  3.376594 0.091814 1.790215
Neck  13.398981 -7.062000 -0.325722
Head  -16.763294 -7.149922 3.674677
LeftShoulder  -7.529938 10.102709 4.148787
LeftArm  25.956828 11.308859 -76.991059
LeftForeArm  32.713580 -0.000000 0.000000
LeftHand  -4.385940 5.987730 -6.550723
LeftHandThumb  0.000000 -0.000000 0.000000
RightShoulder  -12.996374 -12.691708 2.796713
RightArm  15.861738 -15.345321 75.455665
RightForeArm  17.976264 -0.000000 0.000000
RightHand  -6.356122 -3.495325 16.792380
RightHandThumb  0.000000 -0.000000 0.000000
513
root  4.778899 39.885648 22.285093 -14.141297 5.579790 -4.813270
LeftUpLeg  -0.369381 7.582174 8.437160
LeftLeg  63.799291 -0.000000 -0.000000
LeftFoot  14.901278 6.542778 6.499461
LeftToeBase  -20.006541 0.000000 -0.000000
RightUpLeg  2.759771 -4.045698 10.745791
RightLeg  16.529887 -0.000000 0.000000
RightFoot  -0.666086 -19.368372 -10.333502
RightToeBase  -27.094248 0.000000 -0.000000
Spine  13.763523 -3.252134 1.956552
Spine1  3.416575 0.252506 1.593624
Neck  13.463325 -7.082498 -0.347644
Head  -16.864281 -7.223641 3.734381
LeftShoulder  -7.521636 10.163881 4.098310
LeftArm  25.702445 11.461593 -76.991538
LeftForeArm  31.649155 -0.000000 0.000000
LeftHand  -4.644615 5.987938 -6.802655
LeftHandThumb  0.000000 -0.000000 0.000000
RightShoulder  -12.917421 -12.563608 2.660909
RightArm  16.156472 -15.178326 75.628250
RightForeArm  18.398324 -0.000000 0.000000
RightHand  -6.137726 -3.574013 16.388214
RightHandThumb  0.000000 -0.000000 0.000000
514
root  4.779714 39.963893 22.661704 -14.196737 5.285977 -4.703896
LeftUpLeg  -1.077610 7.893039 8.148029
LeftLeg  63.379941 -0.000000 -0.000000
LeftFoot  13.942383 6.757135 6.250459
LeftToeBase  -19.970131 0.000000 -0.000000
RightUpLeg  3.765787 -3.868177 10.683687
RightLeg  15.819045 -0.000000 0.000000
RightFoot  -0.672722 -19.135396 -10.267967
RightToeBase  -26.992959 0.000000 -0.000000
Spine  13.799090 -3.115718 1.974773
Spine1  3.398711 0.390357 1.373117
Neck  13.597510 -7.053160 -0.391264
Head  -16.994289 -7.273284 3.806095
LeftShoulder  -7.528893 10.224238 4.049395
LeftArm  25.362603 11.570921 -76.998807
LeftForeArm  30.606264 -0.000000 0.000000
LeftHand  -4.960752 6.146800 -7.157525
LeftHandThumb  0.000000 -0.000000 0.000000
RightShoulder  -12.718207 -12.469023 2.494473
RightArm  16.359478 -15.037661 75.801738
RightForeArm  18.966563 -0.000000 0.000000
RightHand  -5.996905 -3.538208 16.074014
RightHandThumb  0.000000 -0.000000 0.000000
515
root  4.781696 40.039153 23.038777 -14.252715 4.992270 -4.594288
LeftUpLeg  -1.787956 8.200335 7.854818
LeftLeg  62.960591 -0.000000 -0.000000
LeftFoot  12.982130 6.967319 5.997768
LeftToeBase  -19.933721 0.000000 -0.000000
RightUpLeg  4.771403 -3.689595 10.624729
RightLeg  15.108204 -0.000000 0.000000
RightFoot  -0.679066 -18.902413 -10.202552
RightToeBase  -26.891671 0.000000 -0.000000
Spine  13.834696 -2.979313 1.993076
Spine1  3.380317 0.528139 1.152562
Neck  13.731665 -7.023721 -0.434812
Head  -17.124374 -7.322765 3.877930
LeftShoulder  -7.536205 10.284588 4.000462
LeftArm  25.022614 11.680205 -77.006742
LeftForeArm  29.563372 -0.000000 0.000000
LeftHand  -5.277968 6.303708 -7.513377
LeftHandThumb  0.000000 -0.000000 0.000000
RightShoulder  -12.519347 -12.373874 2.328435
RightArm  16.562790 -14.897591 75.975626
RightForeArm  19.534801 -0.000000 0.000000
RightHand  -5.856288 -3.501632 15.759915
RightHandThumb  0.000000 -0.000000 0.000000
516
root  4.787105 40.110127 23.417666 -14.334626 4.683104 -4.428231
LeftUpLeg  -2.383039 8.513097 7.500342
LeftLeg  62.329323 -0.000000 -0.000000
LeftFoot  12.103984 7.169453 5.852305
LeftToeBase  -20.120289 0.000000 -0.000000
RightUpLeg  5.803049 -3.616738 10.488357
RightLeg  14.411731 -0.000000 0.000000
RightFoot  -0.770488 -18.650324 -10.103652
RightToeBase  -26.601818 0.000000 -0.000000
Spine  13.893513 -2.851911 1.982066
Spine1  3.379094 0.643021 0.888593
Neck  13.817768 -6.963242 -0.484226
Head  -17.207595 -7.336185 3.949411
LeftShoulder  -7.604263 10.310994 3.950155
LeftArm  24.631554 11.801039 -77.003847
LeftForeArm  28.602589 -0.000000 0.000000
LeftHand  -5.750988 6.397401 -7.957917
LeftHandThumb  0.000000 -0.000000 0.000000
RightShoulder  -12.270747 -12.208413 2.132447
RightArm  16.680458 -14.924513 76.117832
RightForeArm  20.182279 -0.000000 0.000000
RightHand  -5.710506 -3.397245 15.404959
RightHandThumb  0.000000 -0.000000 0.000000
517
root  4.793769 40.177160 23.795890 -14.417400 4.374176 -4.261802
LeftUpLeg  -2.980562 8.822193 7.142304
LeftLeg  61.698054 -0.000000 -0.000000
LeftFoot  11.224929 7.369350 5.703671
LeftToeBase  -20.306857 0.000000 -0.000000
RightUpLeg  6.834434 -3.541444 10.353333
RightLeg  13.715258 -0.000000 0.000000
RightFoot  -0.861316 -18.398087 -10.005321
RightToeBase  -26.311965 0.000000 -0.000000
Spine  13.952300 -2.724498 1.971188
Spine1  3.377342 0.757897 0.624615
Neck  13.903807 -6.902689 -0.533543
Head  -17.290835 -7.349502 4.020913
LeftShoulder  -7.672350 10.337342 3.899810
LeftArm  24.240326 11.921889 -77.001794
LeftForeArm  27.641806 -0.000000 0.000000
LeftHand  -6.224812 6.487440 -8.403300
LeftHandThumb  0.000000 -0.000000 0.000000
RightShoulder  -12.022883 -12.042123 1.937318
RightArm  16.798072 -14.951717 76.259997
RightForeArm  20.829757 -0.000000 0.000000
RightHand  -5.565390 -3.291958 15.050308
RightHandThumb  0.000000 -0.000000 0.000000
518
root  4.800111 40.240279 24.170955 -14.484339 4.040429 -4.085748
LeftUpLeg  -3.544754 9.146895 6.778720
LeftLeg  60.909427 -0.000000 -0.000000
LeftFoot  10.396561 7.518863 5.300414
LeftToeBase  -20.333402 0.000000 -0.000000
RightUpLeg  7.845523 -3.411954 10.211627
RightLeg  12.994320 -0.000000 0.000000
RightFoot  -0.813173 -18.217720 -10.009361
RightToeBase  -26.448375 0.000000 -0.000000
Spine  14.017343 -2.592256 1.942442
Spine1  3.341153 0.869608 0.390370
Neck  14.052116 -6.828211 -0.599037
Head  -17.455201 -7.351664 4.058196
LeftShoulder  -7.741121 10.402900 3.844921
LeftArm  23.866224 12.013951 -77.020103
LeftForeArm  26.646602 -0.000000 0.000000
LeftHand  -6.646838 6.657690 -8.843833
LeftHandThumb  0.000000 -0.000000 0.000000
RightShoulder  -11.757559 -11.952468 1.708716
RightArm  16.996989 -15.035766 76.373253
RightForeArm  21.464012 -0.000000 0.000000
RightHand  -5.314438 -3.125507 14.682845
RightHandThumb  0.000000 -0.000000 0.000000
519
root  4.806608 40.299141 24.544256 -14.552279 3.706888 -3.909372
LeftUpLeg  -4.111545 9.468036 6.411576
LeftLeg  60.120800 -0.000000 -0.000000
LeftFoot  9.566869 7.662576 4.894881
LeftToeBase  -20.359947 0.000000 -0.000000
RightUpLeg  8.856153 -3.279989 10.072250
RightLeg  12.273383 -0.000000 0.000000
RightFoot  -0.765094 -18.037351 -10.013238
RightToeBase  -26.584784 0.000000 -0.000000
Spine  14.082313 -2.459981 1.913850
Spine1  3.304507 0.981171 0.156046
Neck  14.200316 -6.753565 -0.664327
Head  -17.619568 -7.353720 4.095485
LeftShoulder  -7.809971 10.468393 3.789940
LeftArm  23.491963 12.105893 -77.039032
LeftForeArm  25.651399 -0.000000 0.000000
LeftHand  -7.070318 6.824707 -9.285771
LeftHandThumb  0.000000 -0.000000 0.000000
RightShoulder  -11.492691 -11.861779 1.480617
RightArm  17.195812 -15.120194 76.486251
RightForeArm  22.098267 -0.000000 0.000000
RightHand  -5.064599 -2.957454 14.316172
RightHandThumb  0.000000 -0.000000 0.000000
520
root  4.813468 40.353253 24.916436 -14.619760 3.375822 -3.708941
LeftUpLeg  -4.619296 9.753064 6.014220
LeftLeg  59.159832 -0.000000 -0.000000
LeftFoot  8.856926 7.807381 4.761384
LeftToeBase  -20.305805 0.000000 -0.000000
RightUpLeg  9.839577 -3.137146 9.906453
RightLeg  11.605690 -0.000000 0.000000
RightFoot  -0.966619 -17.835212 -9.612171
RightToeBase  -26.375138 0.000000 -0.000000
Spine  14.165871 -2.338966 1.865753
Spine1  3.248151 1.073087 -0.086045
Neck  14.330244 -6.572234 -0.793133
Head  -17.751158 -7.393132 4.239449
LeftShoulder  -7.903599 10.559989 3.722523
LeftArm  23.124477 12.254800 -77.010692
LeftForeArm  24.710338 -0.000000 0.000000
LeftHand  -7.551324 7.015029 -9.658088
LeftHandThumb  0.000000 -0.000000 0.000000
RightShoulder  -11.198251 -11.757487 1.241657
RightArm  17.352976 -15.404710 76.502028
RightForeArm  22.842399 -0.000000 0.000000
RightHand  -4.751389 -2.554231 13.858822
RightHandThumb  0.000000 -0.000000 0.000000
